HIERARCHY
ROOT Hips
{
	OFFSET 0.000000 0.000000 0.000000
	CHANNELS 6 Xposition Yposition Zposition Zrotation Yrotation Xrotation 
	JOINT LHipJoint
	{
		OFFSET 0.000000 0.000000 0.000000
		CHANNELS 3 Zrotation Yrotation Xrotation
		JOINT LeftUpLeg
		{
			OFFSET 1.363060 -1.794630 0.839290
			CHANNELS 3 Zrotation Yrotation Xrotation
			JOINT LeftLeg
			{
				OFFSET 2.448110 -6.726130 0.000000
				CHANNELS 3 Zrotation Yrotation Xrotation
				JOINT LeftFoot
				{
					OFFSET 2.562200 -7.039590 0.000000
					CHANNELS 3 Zrotation Yrotation Xrotation
					JOINT LeftToeBase
					{
						OFFSET 0.157640 -0.433110 2.322550
						CHANNELS 3 Zrotation Yrotation Xrotation
						End Site
						{
							OFFSET 0.000000 0.000000 0.000000
						}
					}
				}
			}
		}
	}
	JOINT RHipJoint
	{
		OFFSET 0.000000 0.000000 0.000000
		CHANNELS 3 Zrotation Yrotation Xrotation
		JOINT RightUpLeg
		{
			OFFSET -1.305520 -1.794630 0.839290
			CHANNELS 3 Zrotation Yrotation Xrotation
			JOINT RightLeg
			{
				OFFSET -2.542530 -6.985550 0.000000
				CHANNELS 3 Zrotation Yrotation Xrotation
				JOINT RightFoot
				{
					OFFSET -2.568260 -7.056230 0.000000
					CHANNELS 3 Zrotation Yrotation Xrotation
					JOINT RightToeBase
					{
						OFFSET -0.164730 -0.452590 2.363150
						CHANNELS 3 Zrotation Yrotation Xrotation
						End Site
						{
							OFFSET 0.000000 0.000000 0.000000
						}
					}
				}
			}
		}
	}
	JOINT LowerBack
	{
		OFFSET 0.000000 0.000000 0.000000
		CHANNELS 3 Zrotation Yrotation Xrotation
		JOINT Spine
		{
			OFFSET 0.028270 2.035590 -0.193380
			CHANNELS 3 Zrotation Yrotation Xrotation
			JOINT Spine1
			{
				OFFSET 0.056720 2.048850 -0.042750
				CHANNELS 3 Zrotation Yrotation Xrotation
				JOINT Neck
				{
					OFFSET 0.000000 0.000000 0.000000
					CHANNELS 3 Zrotation Yrotation Xrotation
					JOINT Neck1
					{
						OFFSET -0.054170 1.746240 0.172020
						CHANNELS 3 Zrotation Yrotation Xrotation
						JOINT Head
						{
							OFFSET 0.104070 1.761360 -0.123970
							CHANNELS 3 Zrotation Yrotation Xrotation
							End Site
							{
								OFFSET 0.000000 0.000000 0.000000
							}
						}
					}
				}
				JOINT LeftShoulder
				{
					OFFSET 0.000000 0.000000 0.000000
					CHANNELS 3 Zrotation Yrotation Xrotation
					JOINT LeftArm
					{
						OFFSET 3.362410 1.200890 -0.311210
						CHANNELS 3 Zrotation Yrotation Xrotation
						JOINT LeftForeArm
						{
							OFFSET 4.983000 -0.000000 -0.000000
							CHANNELS 3 Zrotation Yrotation Xrotation
							JOINT LeftHand
							{
								OFFSET 3.483560 -0.000000 -0.000000
								CHANNELS 3 Zrotation Yrotation Xrotation
								JOINT LeftFingerBase
								{
									OFFSET 0.000000 0.000000 0.000000
									CHANNELS 3 Zrotation Yrotation Xrotation
									JOINT LeftHandIndex1
									{
										OFFSET 0.715260 -0.000000 -0.000000
										CHANNELS 3 Zrotation Yrotation Xrotation
										End Site
										{
											OFFSET 0.000000 0.000000 0.000000
										}
									}
								}
								JOINT LThumb
								{
									OFFSET 0.000000 0.000000 0.000000
									CHANNELS 3 Zrotation Yrotation Xrotation
									End Site
									{
										OFFSET 0.000000 0.000000 0.000000
									}
								}
							}
						}
					}
				}
				JOINT RightShoulder
				{
					OFFSET 0.000000 0.000000 0.000000
					CHANNELS 3 Zrotation Yrotation Xrotation
					JOINT RightArm
					{
						OFFSET -3.136600 1.374050 -0.404650
						CHANNELS 3 Zrotation Yrotation Xrotation
						JOINT RightForeArm
						{
							OFFSET -5.241900 -0.000000 -0.000000
							CHANNELS 3 Zrotation Yrotation Xrotation
							JOINT RightHand
							{
								OFFSET -3.444170 -0.000000 -0.000000
								CHANNELS 3 Zrotation Yrotation Xrotation
								JOINT RightFingerBase
								{
									OFFSET 0.000000 0.000000 0.000000
									CHANNELS 3 Zrotation Yrotation Xrotation
									JOINT RightHandIndex1
									{
										OFFSET -0.622530 -0.000000 -0.000000
										CHANNELS 3 Zrotation Yrotation Xrotation
										End Site
										{
											OFFSET 0.000000 0.000000 0.000000
										}
									}
								}
								JOINT RThumb
								{
									OFFSET 0.000000 0.000000 0.000000
									CHANNELS 3 Zrotation Yrotation Xrotation
									End Site
									{
										OFFSET 0.000000 0.000000 0.000000
									}
								}
							}
						}
					}
				}
			}
		}
	}
}
MOTION
Frames: 5
Frame Time: 0.008333
6.170094 17.111296 2.665556 -177.642573 -27.992613 169.525598 7.386260 0.987987 -1.252441 -19.918475 -4.787950 -3.226387 1.922294 11.721278 34.776815 -1.684628 9.775419 -11.238967 1.535000 -7.821700 -22.173700 -9.404519 -0.451086 -3.333888 31.858745 2.369657 -3.807971 -3.339654 -13.491942 37.529577 2.413328 -17.415336 -21.641771 -2.600000 10.017500 -29.033400 -0.870105 2.610928 16.192347 0.648627 2.147635 4.676583 -7.281984 1.080548 7.574005 5.496654 6.643133 12.503809 7.004094 7.442350 8.161631 -2.751500 3.928100 -1.558600 15.723982 1.828739 1.754161 -52.871155 -13.522036 -25.294906 125.806288 -58.927728 -92.611365 -0.886609 -0.960292 7.015004 48.761608 1.692274 3.787200 -7.125000 0.000000 0.000000 18.776200 34.441300 -5.098000 -16.718509 -2.754180 2.838588 73.154145 22.084565 -17.306146 -116.842794 60.607744 -85.384112 0.062632 0.575046 -5.651181 -56.036361 22.961846 -29.074100 7.125000 0.000000 0.000000 -16.088400 4.601000 -18.028300 
6.170779 17.111296 2.659284 -177.559541 -28.038384 169.481789 7.384821 0.987992 -1.245075 -19.886774 -4.938018 -3.177235 1.923116 11.725687 34.792226 -1.724731 9.935286 -11.321951 1.537700 -7.828300 -22.193900 -9.408969 -0.451523 -3.331589 31.967174 2.349713 -3.763248 -3.331658 -13.486270 37.506659 2.405968 -17.413465 -21.720097 -2.560200 9.946600 -28.804000 -0.914437 2.623760 16.137622 0.655702 2.176195 4.652623 -7.226937 1.087787 7.484145 5.531306 6.555851 12.497211 7.278349 7.279961 8.347553 -2.635200 3.855500 -1.492800 15.714764 1.814967 1.723521 -53.230907 -13.375346 -24.603814 125.079091 -59.212122 -92.128601 -0.880372 -1.004063 7.727023 47.869548 2.078128 4.154600 -7.125000 0.000000 0.000000 18.146300 35.017000 -4.644200 -16.711015 -2.743276 2.820070 73.964163 21.932506 -16.691346 -116.339141 60.746130 -84.994192 0.067122 0.582905 -5.462705 -56.018610 23.298274 -29.397600 7.125000 0.000000 0.000000 -15.989200 5.027700 -18.018300 
6.175227 17.111639 2.652896 -177.399366 -28.135702 169.436832 7.378841 0.986557 -1.238229 -19.756989 -5.147696 -3.157707 1.917247 11.719450 34.775559 -1.725400 9.954294 -11.416308 1.478400 -7.682700 -21.754400 -9.419071 -0.447219 -3.327064 32.169142 2.407635 -3.693626 -3.303445 -13.464569 37.413656 2.360423 -17.306787 -21.925171 -2.420700 9.692300 -27.986000 -0.968688 2.561516 16.002866 0.674674 2.113116 4.626134 -7.113982 1.041949 7.449997 5.532852 6.528636 12.377873 7.503705 7.200137 8.553018 -2.532600 3.830000 -1.387800 15.708176 1.803298 1.689754 -53.492787 -13.260568 -24.082456 124.233469 -59.532337 -91.561614 -0.895895 -1.021252 8.604812 47.840743 2.346608 4.496900 -7.125000 0.000000 0.000000 18.203100 35.456800 -4.455100 -16.704369 -2.729250 2.806436 74.716219 21.954976 -15.935181 -115.876378 60.871088 -84.637669 0.072730 0.593003 -5.135212 -55.994322 23.286689 -29.345800 7.125000 0.000000 0.000000 -15.986900 4.972900 -18.001300 
6.180929 17.114946 2.644913 -177.363675 -28.236242 169.427810 7.376262 0.983819 -1.230544 -19.737343 -5.318647 -3.102192 1.909601 11.712186 34.754187 -1.686542 9.832824 -11.495160 1.365000 -7.394700 -20.890200 -9.422599 -0.442212 -3.326846 32.260839 2.487582 -3.547967 -3.265577 -13.416376 37.259557 2.340641 -17.299228 -22.114516 -2.301900 9.468400 -27.271800 -1.086843 2.572223 15.851318 0.676309 2.134468 4.606685 -7.039310 1.040987 7.446891 5.679383 6.436288 12.273374 7.634351 7.061989 8.681069 -2.507300 3.771800 -1.312200 15.715601 1.786046 1.675757 -53.544068 -13.366005 -23.510948 123.333573 -59.853108 -90.967536 -0.916101 -1.050234 9.217684 47.791311 2.723859 4.969500 -7.125000 0.000000 0.000000 18.281700 36.065200 -4.191000 -16.689926 -2.720246 2.789616 75.341776 21.876135 -15.334867 -115.577685 60.957573 -84.404056 0.074284 0.601406 -4.784156 -55.866571 23.391837 -29.324600 7.125000 0.000000 0.000000 -15.890300 5.021600 -17.896300 
6.185149 17.120991 2.638526 -177.332680 -28.335592 169.386599 7.372292 0.987716 -1.222666 -19.721960 -5.392058 -3.031535 1.901396 11.695845 34.713614 -1.701097 9.876444 -11.462957 1.399500 -7.483600 -21.156300 -9.427036 -0.443188 -3.330726 32.352198 2.506752 -3.387382 -3.221437 -13.356133 37.063126 2.433777 -17.673770 -22.125503 -2.373300 9.603800 -27.703000 -1.165956 2.592944 15.785967 0.682079 2.169200 4.582177 -6.966276 1.048462 7.392869 5.750786 6.360769 12.262468 7.706672 6.953274 8.643681 -2.494400 3.711300 -1.328200 15.723458 1.755523 1.676194 -53.524983 -13.571009 -22.970708 122.569830 -60.106414 -90.472918 -0.925423 -1.106797 9.461813 47.257624 3.461829 5.754300 -7.125000 0.000000 0.000000 18.042000 37.157600 -3.626300 -16.684511 -2.716338 2.775315 75.727089 21.735415 -14.701460 -115.380897 61.015836 -84.256904 0.078171 0.611528 -4.669036 -55.569258 23.402398 -29.055000 7.125000 0.000000 0.000000 -15.731100 4.845200 -17.658100 
